<svg width="32" height="32" viewBox="0 0 32 32" fill="none" xmlns="http://www.w3.org/2000/svg">
<rect width="32" height="32" rx="8" fill="#8D8D8D"/>
<path d="M12.7817 22.5803H13.5633V16.9344H12.7817C12.35 16.9344 12 16.5844 12 16.1527V14.2857C12 13.854 12.35 13.504 12.7817 13.504H17.159C17.5907 13.504 17.9407 13.854 17.9407 14.2857V22.5803H18.7223C19.154 22.5803 19.504 22.9302 19.504 23.3619V25.229C19.504 25.6607 19.154 26.0107 18.7223 26.0107H12.7817C12.35 26.0107 12 25.6607 12 25.229V23.3619C12 22.9302 12.35 22.5803 12.7817 22.5803ZM15.752 6C14.1979 6 12.938 7.25985 12.938 8.814C12.938 10.3681 14.1979 11.628 15.752 11.628C17.3061 11.628 18.566 10.3681 18.566 8.814C18.566 7.25985 17.3061 6 15.752 6Z" fill="white"/>
</svg>
