<svg width="32" height="32" viewBox="0 0 32 32" fill="none" xmlns="http://www.w3.org/2000/svg">
<rect width="32" height="32" rx="8" fill="#C073CC"/>
<path d="M25.3071 18.0133L23.6434 17.0525C23.8113 16.1465 23.8113 15.217 23.6434 14.3109L25.3071 13.3501C25.4985 13.2408 25.5844 13.0143 25.5219 12.8034C25.0884 11.413 24.3503 10.1555 23.3857 9.10879C23.2372 8.94867 22.9951 8.90961 22.8076 9.01897L21.1439 9.97971C20.4448 9.37827 19.6403 8.91352 18.7694 8.60889V6.69131C18.7694 6.4726 18.6171 6.28123 18.4023 6.23436C16.969 5.91412 15.5005 5.92974 14.1375 6.23436C13.9227 6.28123 13.7704 6.4726 13.7704 6.69131V8.6128C12.9034 8.92133 12.0988 9.38608 11.3958 9.98362L9.73602 9.02287C9.54465 8.91352 9.30642 8.94867 9.15801 9.1127C8.19336 10.1555 7.45523 11.413 7.02172 12.8073C6.95533 13.0182 7.04515 13.2447 7.23652 13.354L8.90025 14.3148C8.73232 15.2209 8.73232 16.1504 8.90025 17.0564L7.23652 18.0172C7.04515 18.1265 6.95923 18.353 7.02172 18.5639C7.45523 19.9543 8.19336 21.2119 9.15801 22.2585C9.30642 22.4186 9.54856 22.4577 9.73602 22.3483L11.3998 21.3876C12.0988 21.989 12.9034 22.4538 13.7743 22.7584V24.6799C13.7743 24.8986 13.9266 25.09 14.1414 25.1369C15.5747 25.4571 17.0432 25.4415 18.4062 25.1369C18.621 25.09 18.7733 24.8986 18.7733 24.6799V22.7584C19.6403 22.4499 20.4448 21.9851 21.1478 21.3876L22.8115 22.3483C23.0029 22.4577 23.2411 22.4225 23.3896 22.2585C24.3542 21.2158 25.0923 19.9582 25.5258 18.5639C25.5844 18.3491 25.4985 18.1226 25.3071 18.0133ZM16.2699 18.8061C14.5476 18.8061 13.1455 17.404 13.1455 15.6817C13.1455 13.9594 14.5476 12.5573 16.2699 12.5573C17.9922 12.5573 19.3943 13.9594 19.3943 15.6817C19.3943 17.404 17.9922 18.8061 16.2699 18.8061Z" fill="white"/>
</svg>
