<svg width="32" height="32" viewBox="0 0 32 32" fill="none" xmlns="http://www.w3.org/2000/svg">
<rect width="32" height="32" rx="8" fill="#FD8C4C"/>
<path d="M12 16C13.9344 16 15.5 14.4344 15.5 12.5C15.5 10.5656 13.9344 9 12 9C10.0656 9 8.5 10.5656 8.5 12.5C8.5 14.4344 10.0656 16 12 16ZM14.4 17H14.1406C13.4906 17.3125 12.7688 17.5 12 17.5C11.2312 17.5 10.5125 17.3125 9.85938 17H9.6C7.6125 17 6 18.6125 6 20.6V21.5C6 22.3281 6.67188 23 7.5 23H16.5C17.3281 23 18 22.3281 18 21.5V20.6C18 18.6125 16.3875 17 14.4 17ZM21 16C22.6562 16 24 14.6562 24 13C24 11.3438 22.6562 10 21 10C19.3438 10 18 11.3438 18 13C18 14.6562 19.3438 16 21 16ZM22.5 17H22.3813C21.9469 17.15 21.4875 17.25 21 17.25C20.5125 17.25 20.0531 17.15 19.6187 17H19.5C18.8625 17 18.275 17.1844 17.7594 17.4812C18.5219 18.3031 19 19.3938 19 20.6V21.8C19 21.8688 18.9844 21.9344 18.9812 22H24.5C25.3281 22 26 21.3281 26 20.5C26 18.5656 24.4344 17 22.5 17Z" fill="white"/>
</svg>
