<svg width="32" height="32" viewBox="0 0 32 32" fill="none" xmlns="http://www.w3.org/2000/svg">
<rect width="32" height="32" rx="8" fill="#DB5878"/>
<path d="M25.5 14.5H23.5V12.5C23.5 12.225 23.275 12 23 12H22C21.725 12 21.5 12.225 21.5 12.5V14.5H19.5C19.225 14.5 19 14.725 19 15V16C19 16.275 19.225 16.5 19.5 16.5H21.5V18.5C21.5 18.775 21.725 19 22 19H23C23.275 19 23.5 18.775 23.5 18.5V16.5H25.5C25.775 16.5 26 16.275 26 16V15C26 14.725 25.775 14.5 25.5 14.5ZM13 16C15.2094 16 17 14.2094 17 12C17 9.79063 15.2094 8 13 8C10.7906 8 9 9.79063 9 12C9 14.2094 10.7906 16 13 16ZM15.8 17H15.2781C14.5844 17.3188 13.8125 17.5 13 17.5C12.1875 17.5 11.4188 17.3188 10.7219 17H10.2C7.88125 17 6 18.8813 6 21.2V22.5C6 23.3281 6.67188 24 7.5 24H18.5C19.3281 24 20 23.3281 20 22.5V21.2C20 18.8813 18.1187 17 15.8 17Z" fill="white"/>
</svg>
