<svg width="32" height="32" viewBox="0 0 32 32" fill="none" xmlns="http://www.w3.org/2000/svg">
<rect width="32" height="32" rx="8" fill="#DB5878"/>
<path d="M9 22.5001V23.5001C9 23.7764 9.22375 24.0001 9.5 24.0001H16.5C16.7762 24.0001 17 23.7764 17 23.5001V12.7892C17.1425 12.7267 17.2787 12.6533 17.4059 12.5667L21.845 14.0551C22.1069 14.1429 22.3903 14.0017 22.4781 13.7401L22.7959 12.792C22.8837 12.5301 22.7425 12.2467 22.4809 12.1589L18.4684 10.8136C18.4816 10.7098 18.5 10.6073 18.5 10.5001C18.5 9.11951 17.3806 8.00013 16 8.00013C15.0722 8.00013 14.2719 8.51138 13.8403 9.2617L10.155 8.02607C9.89313 7.93826 9.60969 8.07951 9.52187 8.34107L9.20406 9.2892C9.11625 9.55107 9.2575 9.83451 9.51906 9.92232L13.6441 11.3054C13.8716 11.9695 14.3616 12.5098 14.9997 12.7889V22.0001H9.5C9.22375 22.0001 9 22.2239 9 22.5001ZM6 17.5001C6 18.8808 7.79094 20.0001 10 20.0001C12.2091 20.0001 14 18.8808 14 17.5001H13.9994C13.9994 17.0104 14.0644 17.2736 11.3416 11.8279C10.7891 10.7229 9.20969 10.7251 8.65812 11.8279C5.95875 17.2273 6.00062 16.9945 6.00062 17.5001H6ZM7.75 17.0001L10 12.5001L12.25 17.0001H7.75ZM18.0006 21.5001H18C18 22.8808 19.7909 24.0001 22 24.0001C24.2091 24.0001 26 22.8808 26 21.5001H25.9994C25.9994 21.0104 26.0644 21.2736 23.3416 15.8279C22.7891 14.7229 21.2097 14.7251 20.6581 15.8279C17.9587 21.2273 18.0006 20.9945 18.0006 21.5001ZM19.75 21.0001L22 16.5001L24.25 21.0001H19.75Z" fill="white"/>
</svg>
