<svg width="32" height="32" viewBox="0 0 32 32" fill="none" xmlns="http://www.w3.org/2000/svg">
<rect width="32" height="32" rx="8" fill="#FD8C4C"/>
<path d="M6 15V19C6 19.5531 6.44687 20 7 20H8V14H7C6.44687 14 6 14.4469 6 15ZM20.5 10H17V8C17 7.44687 16.5531 7 16 7C15.4469 7 15 7.44687 15 8V10H11.5C10.1188 10 9 11.1188 9 12.5V21C9 22.1031 9.89687 23 11 23H21C22.1031 23 23 22.1031 23 21V12.5C23 11.1188 21.8813 10 20.5 10ZM14 20H12V19H14V20ZM13 16.25C12.3094 16.25 11.75 15.6906 11.75 15C11.75 14.3094 12.3094 13.75 13 13.75C13.6906 13.75 14.25 14.3094 14.25 15C14.25 15.6906 13.6906 16.25 13 16.25ZM17 20H15V19H17V20ZM20 20H18V19H20V20ZM19 16.25C18.3094 16.25 17.75 15.6906 17.75 15C17.75 14.3094 18.3094 13.75 19 13.75C19.6906 13.75 20.25 14.3094 20.25 15C20.25 15.6906 19.6906 16.25 19 16.25ZM25 14H24V20H25C25.5531 20 26 19.5531 26 19V15C26 14.4469 25.5531 14 25 14Z" fill="white"/>
</svg>
