<svg width="32" height="32" viewBox="0 0 32 32" fill="none" xmlns="http://www.w3.org/2000/svg">
<rect width="32" height="32" rx="8" fill="#42ADE9"/>
<path d="M25.8792 15.1597C23.9962 11.4858 20.2684 9 16 9C11.7316 9 8.00276 11.4875 6.12081 15.1601C6.04138 15.3172 6 15.4908 6 15.6669C6 15.8429 6.04138 16.0165 6.12081 16.1736C8.0038 19.8476 11.7316 22.3334 16 22.3334C20.2684 22.3334 23.9972 19.8459 25.8792 16.1733C25.9586 16.0162 26 15.8426 26 15.6665C26 15.4904 25.9586 15.3169 25.8792 15.1597ZM16 20.6667C15.0111 20.6667 14.0444 20.3734 13.2221 19.824C12.3999 19.2746 11.759 18.4937 11.3806 17.5801C11.0022 16.6665 10.9031 15.6611 11.0961 14.6912C11.289 13.7213 11.7652 12.8304 12.4645 12.1311C13.1637 11.4319 14.0546 10.9557 15.0245 10.7627C15.9945 10.5698 16.9998 10.6688 17.9134 11.0473C18.8271 11.4257 19.6079 12.0666 20.1574 12.8888C20.7068 13.7111 21 14.6778 21 15.6667C21.0003 16.3234 20.8712 16.9737 20.6201 17.5805C20.3689 18.1873 20.0006 18.7386 19.5363 19.2029C19.0719 19.6673 18.5206 20.0356 17.9138 20.2867C17.307 20.5379 16.6567 20.667 16 20.6667ZM16 12.3333C15.7025 12.3375 15.4069 12.3818 15.1212 12.4649C15.3567 12.785 15.4697 13.1788 15.4397 13.575C15.4097 13.9712 15.2388 14.3435 14.9578 14.6245C14.6769 14.9054 14.3045 15.0764 13.9083 15.1064C13.5121 15.1364 13.1183 15.0234 12.7983 14.7879C12.616 15.4592 12.6489 16.1709 12.8923 16.8226C13.1357 17.4743 13.5773 18.0333 14.1551 18.4208C14.7328 18.8084 15.4175 19.005 16.1128 18.9831C16.8082 18.9611 17.4791 18.7216 18.0312 18.2984C18.5833 17.8751 18.9888 17.2894 19.1906 16.6236C19.3923 15.9578 19.3803 15.2456 19.156 14.587C18.9318 13.9285 18.5066 13.3568 17.9405 12.9525C17.3744 12.5483 16.6957 12.3317 16 12.3333Z" fill="white"/>
</svg>
